<svg xmlns="http://www.w3.org/2000/svg" x="0px" y="0px" width="60" height="60" viewBox="0 0 172 172" style=" fill:#000000;">
    <g fill="none" fill-rule="nonzero" stroke="none" stroke-width="1" stroke-linecap="butt" stroke-linejoin="miter" stroke-miterlimit="10" stroke-dasharray="" stroke-dashoffset="0" font-family="none" font-weight="none" font-size="none" text-anchor="none" style="mix-blend-mode: normal">
        <path d="M0,172v-172h172v172z" fill="none"></path>
        <g>
            <path d="M55.79922,25.19531c-1.41094,-0.03359 -2.78828,-0.06719 -4.19922,0c0.23516,9.77578 1.81406,19.92109 -0.67187,29.49531c0.63828,0.10078 1.24297,0.23516 1.84766,0.43672c0.67188,0.20156 1.20937,0.47031 1.67969,0.80625c0.57109,-1.6125 0.60469,-3.52734 0.63828,-5.13984c0.06719,-2.41875 0,-4.87109 0.06719,-7.28984c0.10078,-3.15781 0.70547,-6.24844 0.73906,-9.40625c0.03359,-2.98984 -0.06719,-5.94609 -0.10078,-8.90234z" fill="#71c598"></path>
            <path d="M104.98047,59.52813c-7.76016,-5.20703 -17.83828,-6.88672 -26.77422,-3.96406c-8.39844,2.72109 -15.82266,8.86875 -16.29297,18.20781c-0.03359,0.70547 -0.36953,1.17578 -0.83984,1.41094c-1.075,10.48125 1.67969,22.70938 11.22031,28.55469c10.81719,6.61797 25.09453,7.35703 36.44922,1.57891c18.8125,-9.60781 10.61562,-36.14687 -3.7625,-45.78828zM106.25703,97.72422c-5.17344,4.13203 -12.09375,5.77813 -18.64453,5.57656c-6.28203,-0.20156 -13.77344,-2.18359 -17.83828,-7.35703c-5.34141,-6.78594 -3.99766,-15.55391 -2.35156,-23.44844c0,-0.23516 0.03359,-0.47031 0.16797,-0.73906c0,-0.06719 0.03359,-0.13438 0.03359,-0.20156c0.10078,-0.50391 0.33594,-0.87344 0.67188,-1.10859c10.58203,-18.07344 39.74141,-9.37266 43.83984,9.80938c1.37734,6.61797 -0.57109,13.23594 -5.87891,17.46875z" fill="#fcbf95"></path>
            <path d="M102.79688,71.21875c-8.83516,-8.39844 -25.22891,-10.54844 -31.64531,1.84766c-1.6125,7.65937 -3.46016,17.56953 3.96406,22.70938c5.47578,3.79609 12.93359,4.50156 19.31641,3.19141c5.77812,-1.20938 11.95938,-4.43438 13.80703,-10.48125c1.88125,-6.08047 -1.00781,-13.06797 -5.44219,-17.26719zM98.42969,85.76484c0,0.57109 -0.20156,1.20938 -0.73906,1.51172c-4.66953,2.62031 -11.25391,4.73672 -16.22578,1.64609c-1.57891,-0.97422 -2.45234,-2.58672 -2.72109,-4.40078c-0.16797,-1.10859 0.10078,-3.02344 -0.70547,-3.93047c-1.00781,-1.10859 -0.23516,-2.65391 0.80625,-2.98984c2.01563,-4.33359 8.33125,-5.94609 12.66484,-5.07266c2.65391,0.5375 5.17344,1.98203 6.31563,4.53516c1.17578,2.82187 0.63828,5.81172 0.60469,8.70078zM136.69297,33.99688c-2.75469,-1.075 -5.84531,-0.90703 -8.73438,-0.83984c-1.88125,0.03359 -5.67734,-0.70547 -7.12187,0.94062c-1.20938,1.41094 -0.87344,3.96406 -0.80625,5.67734c0.03359,1.47813 0.13438,2.98984 0,4.46797c-0.13437,1.34375 -0.67187,3.09062 0.13438,4.3c0.16797,0.03359 0.33594,0.06719 0.50391,0.13438c2.08281,0.87344 4.19922,1.27656 6.48359,1.075c1.81406,-0.16797 3.42656,-0.23516 5.24062,-0.03359c2.58672,0.26875 6.34922,1.10859 7.59219,-1.84766c1.71328,-4.09844 1.51172,-11.99297 -3.29219,-13.87422z" fill="#283d5b"></path>
            <path d="M94.93594,79.04609c-0.70547,-1.98203 -2.45234,-2.98984 -4.46797,-3.25859c-3.05703,-0.40313 -7.62578,0.5375 -8.83516,3.79609c-0.06719,0.16797 -0.13438,0.30234 -0.20156,0.40313c0.23516,0.60469 0.36953,1.27656 0.43672,1.98203c0.10078,1.17578 -0.03359,2.65391 0.77266,3.62812c1.31016,1.57891 4.40078,1.6125 6.21484,1.37734c2.21719,-0.30234 4.3,-1.075 6.28203,-2.08281c0.13438,-1.94844 0.43672,-4.06484 -0.20156,-5.84531z" fill="#283d5b"></path>
            <path d="M149.86172,39.57344c-3.225,-6.65156 -9.50703,-11.18672 -16.49453,-13.26953c-8.19687,-2.45234 -16.39375,-1.81406 -24.79219,-1.04141c-10.51484,0.97422 -21.09688,2.21719 -31.67891,1.71328c-3.93047,-0.16797 -7.82734,-0.63828 -11.75781,-1.075c0,6.34922 -0.20156,12.69844 -0.50391,19.01406c-0.16797,3.52734 -0.30234,7.05469 -0.70547,10.54844c-0.10078,0.83984 -0.16797,2.04922 -0.47031,3.02344h0.90703c0.26875,0 0.50391,0.06719 0.70547,0.13437c7.08828,-6.58438 18.275,-9.47344 27.61406,-7.92813c6.18125,1.00781 11.89219,3.69531 16.6625,7.49141c0.23516,-0.13437 0.50391,-0.20156 0.83984,-0.20156c8.29766,0 16.62891,0.16797 24.92656,0.20156c4.16563,0.03359 8.29766,0.03359 12.46328,-0.06719c1.10859,-0.03359 2.21719,-0.03359 3.29219,-0.06719c0.73906,-0.03359 1.6125,-0.13437 2.41875,-0.13437c0.06719,-6.28203 -0.67187,-12.69844 -3.42656,-18.34219zM141.76563,51.26406c-2.58672,2.65391 -6.65156,2.01563 -10.01094,1.67969c-2.15,-0.20156 -4.23281,0.20156 -6.38281,0.13437c-2.15,-0.06719 -4.16563,-0.63828 -6.18125,-1.47812c-0.30234,-0.13438 -0.50391,-0.26875 -0.63828,-0.47031c-0.36953,-0.06719 -0.70547,-0.26875 -1.00781,-0.60469c-2.04922,-2.41875 -0.73906,-6.18125 -0.80625,-9.00312c-0.06719,-2.62031 -0.47031,-5.67734 0.60469,-8.16328c1.075,-2.48594 3.66172,-3.49375 6.21484,-3.59453c3.32578,-0.16797 6.81953,-0.23516 10.14531,0.10078c3.09062,0.30234 6.41641,1.31016 8.26406,4.03125c1.67969,2.45234 2.28438,5.67734 2.25078,8.63359c-0.03359,2.88906 -0.33594,6.55078 -2.45234,8.73438z" fill="#c56528"></path>
            <path d="M59.15859,25.36328c0.06719,3.25859 0.16797,6.48359 0.03359,9.74219c-0.13437,2.98984 -0.70547,5.9125 -0.73906,8.90234c-0.03359,2.75469 0.03359,5.50937 -0.13437,8.26406c-0.13438,2.04922 -0.26875,4.36719 -1.37734,6.18125c-0.03359,0.03359 -0.03359,0.06719 -0.06719,0.10078h3.02344c0.03359,-0.30234 0.16797,-0.60469 0.33594,-0.87344c0,-0.03359 0,-0.06719 0.03359,-0.10078c0.10078,-0.40312 0.16797,-0.80625 0.23516,-1.24297c0.16797,-1.17578 0.26875,-2.31797 0.36953,-3.49375c0.26875,-3.35937 0.43672,-6.75234 0.57109,-10.11172c0.20156,-5.54297 0.36953,-11.08594 0.40312,-16.62891c0,-0.16797 0.03359,-0.33594 0.06719,-0.47031c-0.94062,-0.13438 -1.84766,-0.20156 -2.75469,-0.26875z" fill="#4b7bb2"></path>
            <path d="M31.88047,44.98203c-0.33594,-4.26641 -1.04141,-8.56641 -1.24297,-12.83281c-1.88125,1.41094 -3.62812,2.95625 -5.27422,4.60234c0,0.06719 0,0.10078 0,0.16797c0,7.72656 0.33594,15.41953 0.63828,23.14609c0.03359,0 0.03359,0 0.06719,0h5.03906c0.06719,0 0.16797,0 0.23516,0.03359c-0.43672,-0.80625 -0.23516,-1.91484 0.63828,-2.35156c0,-0.03359 0,-0.10078 0.03359,-0.16797c0.03359,-0.16797 0.06719,-0.33594 0.10078,-0.50391c0.16797,-1.04141 0.20156,-2.08281 0.20156,-3.12422c0,-3.02344 -0.20156,-6.01328 -0.43672,-8.96953z" fill="#c56528"></path>
            <path d="M53.11172,59.56172c-0.43672,-1.14219 -1.47813,-1.37734 -2.58672,-1.54531c-2.41875,-0.36953 -4.8375,-0.16797 -7.25625,-0.16797c-1.94844,0 -4.50156,0.30234 -6.14766,1.41094c-1.37734,0.90703 -1.94844,2.25078 -2.11641,3.79609c0.30234,0.03359 0.60469,0.16797 0.87344,0.43672c2.18359,2.01563 6.45,1.44453 9.10391,1.075c2.82188,-0.36953 5.67734,-0.97422 8.33125,-1.98203c0.10078,-1.04141 0.16797,-2.15 -0.20156,-3.02344z" fill="#d6e5e5"></path>
            <path d="M151.97813,96.04453c-0.90703,-9.27188 0,-18.34219 0.77266,-27.58047c0.20156,-2.25078 0.36953,-4.53516 0.47031,-6.88672c-0.03359,-0.03359 -0.10078,-0.06719 -0.13438,-0.10078c0,0 0,0 -0.03359,-0.03359c-0.13438,0.03359 -0.30234,0.03359 -0.57109,-0.03359l-0.67187,0.03359c-0.43672,0 -0.87344,0.03359 -1.31016,0.03359c-0.87344,0.03359 -1.74687,0.03359 -2.65391,0.06719c-1.74687,0.03359 -3.49375,0.06719 -5.24062,0.06719c-3.49375,0.03359 -6.9875,0 -10.44766,-0.03359c-6.41641,-0.06719 -12.86641,-0.16797 -19.31641,-0.16797c6.01328,6.18125 9.97734,14.41172 10.61563,23.24688c0.63828,8.83516 -2.65391,17.46875 -10.27969,22.44062c-8.12969,5.30781 -18.8125,7.05469 -28.35313,5.30781c-8.73437,-1.6125 -17.87188,-5.71094 -22.64219,-13.53828c-4.50156,-7.35703 -5.81172,-16.125 -4.8375,-24.59062c0.06719,-0.63828 0.40312,-1.075 0.80625,-1.34375c0.26875,-4.23281 1.78047,-7.92813 4.06484,-11.05234h-5.17344c-0.16797,0 -0.33594,-0.03359 -0.47031,-0.06719c0,0.60469 0,1.17578 0,1.78047c0,0.80625 -0.36953,1.37734 -1.10859,1.71328c-3.56094,1.54531 -7.65938,2.41875 -11.52266,2.72109c-3.35937,0.26875 -7.65937,0.40313 -10.31328,-2.04922c-0.06719,-0.06719 -0.13438,-0.13438 -0.16797,-0.20156c-0.90703,0.20156 -1.91484,-0.26875 -1.91484,-1.44453c0,-0.33594 0.03359,-0.67187 0.03359,-1.00781c-0.06719,0 -0.16797,0.03359 -0.26875,0.03359h-5.03906c-0.06719,0 -0.13438,0 -0.20156,0c0.13438,3.56094 0.23516,7.12187 0.30234,10.71641c0.06719,5.13984 0.13438,10.31328 -0.26875,15.45313c-0.36953,4.8375 -1.04141,9.675 -1.6125,14.5125c-1.10859,9.33906 -2.38516,19.95469 1.20937,28.95781c5.67734,14.27734 23.34766,15.08359 36.41563,14.10938c10.64922,-0.77266 21.29844,-2.31797 32.01484,-2.38516c8.76797,-0.06719 17.43516,1.47813 26.20313,1.57891c7.55859,0.10078 15.75547,-0.67187 22.23906,-4.97187c6.9875,-4.63594 10.2125,-12.16094 10.88437,-20.32422c0.73906,-8.33125 -0.67187,-16.6625 -1.47812,-24.96016z" fill="#fcbf95"></path>
            <path d="M36.44922,28.52109c-0.83984,0.43672 -1.67969,0.87344 -2.48594,1.37734c0.06719,5.64375 1.075,11.32109 1.44453,16.93125c0.20156,3.12422 0.40313,6.31563 0.16797,9.43984c1.24297,-0.70547 2.65391,-1.17578 4.09844,-1.44453v-27.64766c-1.10859,0.40312 -2.18359,0.83984 -3.225,1.34375z" fill="#ef4823"></path>
            <path d="M48.24063,25.39688c-1.74688,0.16797 -3.52734,0.43672 -5.24063,0.83984v28.28594v0c1.37734,-0.03359 2.82187,-0.10078 4.23281,-0.10078c0.06719,-0.36953 0.23516,-0.63828 0.47031,-0.87344c2.28438,-9.1375 0.77266,-18.8125 0.5375,-28.15156z" fill="#febf10"></path>
            <path d="M112.10234,80.28906c-4.09844,-19.18203 -33.25781,-27.88281 -43.83984,-9.80938c-0.33594,0.26875 -0.57109,0.63828 -0.67187,1.10859c0,0.06719 -0.03359,0.13438 -0.03359,0.20156c-0.10078,0.26875 -0.16797,0.50391 -0.16797,0.73906c-1.64609,7.89453 -2.98984,16.62891 2.35156,23.44844c4.06484,5.17344 11.58984,7.15547 17.83828,7.35703c6.55078,0.20156 13.47109,-1.44453 18.64453,-5.57656c5.34141,-4.26641 7.28984,-10.88437 5.87891,-17.46875zM108.27266,88.48594c-1.84766,6.01328 -8.02891,9.27188 -13.80703,10.48125c-6.41641,1.31016 -13.84063,0.60469 -19.31641,-3.19141c-7.39062,-5.13984 -5.57656,-15.08359 -3.96406,-22.70938c6.41641,-12.39609 22.81016,-10.24609 31.64531,-1.84766c4.40078,4.19922 7.28984,11.18672 5.44219,17.26719zM141.93359,33.92969c-1.81406,-2.6875 -5.17344,-3.69531 -8.26406,-4.03125c-3.29219,-0.33594 -6.81953,-0.26875 -10.14531,-0.10078c-2.55313,0.10078 -5.13984,1.10859 -6.21484,3.59453c-1.075,2.48594 -0.67187,5.50938 -0.60469,8.16328c0.06719,2.85547 -1.24297,6.61797 0.80625,9.00312c0.30234,0.33594 0.63828,0.5375 1.00781,0.60469c0.16797,0.20156 0.36953,0.33594 0.63828,0.47031c1.98203,0.80625 3.99766,1.41094 6.18125,1.47813c2.15,0.06719 4.23281,-0.33594 6.38281,-0.13438c3.35938,0.33594 7.39063,0.97422 10.01094,-1.67969c2.11641,-2.18359 2.45234,-5.84531 2.45234,-8.70078c0.03359,-2.95625 -0.57109,-6.18125 -2.25078,-8.66719zM139.98516,47.80391c-1.24297,2.95625 -5.00547,2.11641 -7.59219,1.84766c-1.81406,-0.16797 -3.42656,-0.10078 -5.24063,0.03359c-2.25078,0.20156 -4.36719,-0.23516 -6.48359,-1.075c-0.16797,-0.06719 -0.33594,-0.10078 -0.50391,-0.13437c-0.80625,-1.20938 -0.26875,-2.95625 -0.13437,-4.3c0.13437,-1.47812 0.03359,-2.98984 0,-4.46797c-0.03359,-1.71328 -0.40312,-4.26641 0.80625,-5.67734c1.44453,-1.64609 5.20703,-0.90703 7.12188,-0.94062c2.88906,-0.06719 6.01328,-0.23516 8.73438,0.83984c4.80391,1.94844 5.00547,9.84297 3.29219,13.87422z" fill="#000000"></path>
            <path d="M156.88281,111.22891c-0.50391,-8.26406 -2.08281,-16.46094 -2.04922,-24.75859c0.03359,-9.97734 1.91484,-19.85391 1.78047,-29.86484c-0.10078,-8.63359 -1.84766,-17.7375 -7.69297,-24.38906c-4.8375,-5.50938 -11.69063,-8.66719 -18.77891,-10.14531c-8.66719,-1.78047 -17.56953,-0.5375 -26.27031,0.30234c-10.64922,1.00781 -21.29844,1.94844 -31.98125,0.94063c-4.3,-0.40313 -8.63359,-0.94063 -12.93359,-1.24297c-0.50391,-0.97422 -1.98203,-0.97422 -2.75469,-0.16797c-1.88125,-0.06719 -3.7625,-0.10078 -5.67734,0c-0.36953,-0.10078 -0.83984,-0.10078 -1.20937,0.06719c-1.17578,0.06719 -2.35156,0.20156 -3.49375,0.33594c-9.23828,1.27656 -16.89766,6.14766 -23.38125,12.63125c-0.5375,0.5375 -0.57109,1.17578 -0.33594,1.67969c-0.06719,0.16797 -0.10078,0.36953 -0.10078,0.57109c0,10.88437 0.67188,21.73516 0.97422,32.61953c0.16797,5.40859 0.20156,10.85078 0.03359,16.25938c-0.13438,4.8375 -0.80625,9.64141 -1.41094,14.41172c-1.20937,9.57422 -2.45234,19.48438 -0.36953,29.025c1.6125,7.35703 5.64375,13.26953 12.29531,16.89766c6.14766,3.35938 13.47109,4.23281 20.35781,4.36719c9.47344,0.16797 18.98047,-1.31016 28.42031,-2.08281c5.30781,-0.43672 10.64922,-0.70547 15.95703,-0.57109c4.50156,0.10078 8.96953,0.67188 13.4375,1.075c7.76016,0.67188 15.62109,0.87344 23.24688,-0.97422c7.59219,-1.84766 14.24375,-6.41641 18.10703,-13.26953c4.03125,-7.15547 4.3,-15.78906 3.82969,-23.71719zM63.99609,55.49688c0.40313,-3.49375 0.5375,-7.02109 0.70547,-10.54844c0.26875,-6.34922 0.47031,-12.69844 0.50391,-19.01406c3.93047,0.40313 7.82734,0.87344 11.75781,1.075c10.58203,0.50391 21.16406,-0.73906 31.67891,-1.71328c8.39844,-0.77266 16.59531,-1.41094 24.79219,1.04141c6.9875,2.08281 13.26953,6.61797 16.49453,13.26953c2.75469,5.64375 3.49375,12.06016 3.46016,18.40937c-0.80625,-0.03359 -1.64609,0.10078 -2.41875,0.13438c-1.10859,0.03359 -2.18359,0.06719 -3.29219,0.06719c-4.16562,0.06719 -8.29766,0.06719 -12.46328,0.06719c-8.29766,-0.03359 -16.62891,-0.20156 -24.92656,-0.20156c-0.33594,0 -0.60469,0.06719 -0.83984,0.20156c-4.80391,-3.86328 -10.51484,-6.55078 -16.69609,-7.55859c-9.33906,-1.51172 -20.55938,1.34375 -27.61406,7.92813c-0.20156,-0.10078 -0.43672,-0.13438 -0.70547,-0.13438h-0.94063c0.33594,-0.97422 0.40312,-2.15 0.50391,-3.02344zM108.74297,105.31641c-11.35469,5.77813 -25.59844,5.03906 -36.44922,-1.57891c-9.54063,-5.84531 -12.29531,-18.10703 -11.22031,-28.55469c0.47031,-0.23516 0.80625,-0.70547 0.83984,-1.41094c0.47031,-9.37266 7.89453,-15.48672 16.29297,-18.20781c8.96953,-2.92266 19.01406,-1.24297 26.77422,3.96406c14.37812,9.64141 22.575,36.18047 3.7625,45.78828zM56.94141,58.45313c1.10859,-1.81406 1.27656,-4.09844 1.37734,-6.18125c0.16797,-2.75469 0.10078,-5.50938 0.13437,-8.26406c0.03359,-2.98984 0.60469,-5.9125 0.73906,-8.90234c0.13438,-3.25859 0.03359,-6.48359 -0.03359,-9.74219c0.90703,0.06719 1.81406,0.13438 2.72109,0.23516c-0.03359,0.13438 -0.06719,0.30234 -0.06719,0.47031c0,5.54297 -0.16797,11.08594 -0.40312,16.62891c-0.13438,3.35938 -0.26875,6.75234 -0.57109,10.11172c-0.10078,1.17578 -0.20156,2.35156 -0.36953,3.49375c-0.06719,0.40312 -0.13437,0.83984 -0.23516,1.24297c0,0.03359 -0.03359,0.06719 -0.03359,0.10078c-0.20156,0.26875 -0.30234,0.57109 -0.33594,0.87344h-3.02344c0.06719,-0.03359 0.06719,-0.03359 0.10078,-0.06719zM51.6,25.16172c1.41094,-0.03359 2.78828,-0.03359 4.19922,0c0.03359,2.95625 0.13437,5.9125 0.10078,8.86875c-0.06719,3.15781 -0.67187,6.24844 -0.73906,9.40625c-0.06719,2.41875 0,4.87109 -0.06719,7.28984c-0.03359,1.6125 -0.06719,3.52734 -0.63828,5.13984c-0.47031,-0.33594 -1.00781,-0.60469 -1.67969,-0.80625c-0.60469,-0.20156 -1.20938,-0.33594 -1.84766,-0.43672c2.48594,-9.50703 0.90703,-19.68594 0.67187,-29.46172zM50.525,58.01641c1.10859,0.16797 2.15,0.40312 2.58672,1.54531c0.33594,0.87344 0.26875,1.98203 0.20156,3.02344c-2.6875,1.00781 -5.50937,1.6125 -8.33125,1.98203c-2.65391,0.33594 -6.92031,0.94062 -9.10391,-1.075c-0.26875,-0.26875 -0.57109,-0.40312 -0.87344,-0.43672c0.16797,-1.51172 0.73906,-2.88906 2.11641,-3.79609c1.67969,-1.10859 4.19922,-1.41094 6.14766,-1.41094c2.41875,0 4.8375,-0.20156 7.25625,0.16797zM43,26.23672c1.71328,-0.40312 3.49375,-0.67187 5.24063,-0.83984c0.23516,9.33906 1.74687,19.01406 -0.50391,28.15156c-0.23516,0.20156 -0.40313,0.50391 -0.47031,0.87344c-1.41094,0 -2.85547,0.06719 -4.23281,0.10078v0v-28.28594zM36.44922,28.52109c1.04141,-0.50391 2.11641,-0.97422 3.225,-1.34375v27.64766c-1.44453,0.26875 -2.85547,0.73906 -4.09844,1.44453c0.23516,-3.12422 0.03359,-6.31563 -0.16797,-9.43984c-0.36953,-5.61016 -1.41094,-11.2875 -1.44453,-16.93125c0.77266,-0.47031 1.6125,-0.94063 2.48594,-1.37734zM30.6375,32.14922c0.20156,4.26641 0.90703,8.56641 1.24297,12.83281c0.23516,2.95625 0.43672,5.94609 0.43672,8.93594c0,1.04141 -0.03359,2.08281 -0.20156,3.12422c-0.03359,0.16797 -0.06719,0.33594 -0.10078,0.50391c0,0.06719 -0.03359,0.13437 -0.03359,0.16797c-0.87344,0.43672 -1.04141,1.57891 -0.63828,2.35156c-0.06719,0 -0.16797,-0.03359 -0.23516,-0.03359h-5.03906c-0.03359,0 -0.03359,0 -0.06719,0c-0.30234,-7.72656 -0.63828,-15.41953 -0.63828,-23.14609c0,-0.06719 0,-0.10078 0,-0.16797c1.64609,-1.6125 3.42656,-3.15781 5.27422,-4.56875zM153.52344,121.03828c-0.67187,8.19687 -3.89687,15.68828 -10.88438,20.32422c-6.48359,4.3 -14.68047,5.03906 -22.23906,4.97187c-8.76797,-0.10078 -17.43516,-1.64609 -26.20312,-1.57891c-10.71641,0.06719 -21.33203,1.6125 -32.01484,2.38516c-13.10156,0.97422 -30.73828,0.16797 -36.41563,-14.10937c-3.56094,-9.00313 -2.31797,-19.58516 -1.20937,-28.95781c0.57109,-4.8375 1.24297,-9.64141 1.6125,-14.5125c0.40313,-5.13984 0.33594,-10.31328 0.26875,-15.45312c-0.06719,-3.56094 -0.16797,-7.15547 -0.30234,-10.71641c0.06719,0 0.13438,0 0.20156,0h5.03906c0.10078,0 0.16797,0 0.26875,-0.03359c-0.03359,0.33594 -0.03359,0.67187 -0.03359,1.00781c-0.03359,1.17578 0.97422,1.64609 1.91484,1.44453c0.06719,0.06719 0.10078,0.13437 0.16797,0.20156c2.65391,2.45234 6.95391,2.35156 10.31328,2.04922c3.86328,-0.33594 7.92813,-1.17578 11.52266,-2.72109c0.73906,-0.33594 1.10859,-0.90703 1.10859,-1.71328c0,-0.60469 0,-1.17578 0,-1.78047c0.13437,0.03359 0.30234,0.06719 0.47031,0.06719h5.17344c-2.31797,3.09062 -3.79609,6.78594 -4.06484,11.05234c-0.43672,0.23516 -0.73906,0.67188 -0.80625,1.34375c-0.94063,8.46562 0.33594,17.23359 4.8375,24.59063c4.80391,7.82734 13.90781,11.95938 22.64219,13.53828c9.50703,1.74688 20.18984,0 28.35312,-5.30781c7.62578,-4.97188 10.91797,-13.60547 10.27969,-22.44063c-0.63828,-8.83516 -4.60234,-17.06562 -10.61563,-23.24687c6.45,0.03359 12.86641,0.13437 19.31641,0.16797c3.49375,0.03359 6.9875,0.03359 10.44766,0.03359c1.74687,0 3.49375,-0.03359 5.24062,-0.06719c0.87344,0 1.74688,-0.03359 2.65391,-0.06719c0.43672,0 0.87344,-0.03359 1.31016,-0.03359l0.67188,-0.03359c0.26875,0.06719 0.43672,0.06719 0.57109,0.03359c0,0 0,0 0.03359,0.03359c0.03359,0.03359 0.10078,0.06719 0.13438,0.10078c-0.10078,2.31797 -0.26875,4.63594 -0.47031,6.88672c-0.77266,9.23828 -1.67969,18.30859 -0.77266,27.58047c0.73906,8.26406 2.15,16.59531 1.47813,24.96016z" fill="#000000"></path>
            <path d="M97.79141,77.09766c-1.14219,-2.55312 -3.66172,-3.99766 -6.31563,-4.53516c-4.33359,-0.87344 -10.64922,0.73906 -12.66484,5.07266c-1.04141,0.30234 -1.81406,1.88125 -0.80625,2.98984c0.83984,0.90703 0.57109,2.78828 0.70547,3.93047c0.26875,1.81406 1.14219,3.42656 2.72109,4.40078c5.00547,3.09063 11.55625,0.97422 16.22578,-1.64609c0.5375,-0.30234 0.73906,-0.94062 0.73906,-1.51172c0.06719,-2.92266 0.60469,-5.9125 -0.60469,-8.70078zM95.1375,84.89141c-1.98203,1.04141 -4.06484,1.78047 -6.28203,2.08281c-1.81406,0.26875 -4.90469,0.20156 -6.21484,-1.37734c-0.80625,-0.94063 -0.67187,-2.45234 -0.77266,-3.62813c-0.06719,-0.70547 -0.20156,-1.37734 -0.43672,-1.98203c0.06719,-0.10078 0.16797,-0.23516 0.20156,-0.40313c1.20938,-3.25859 5.74453,-4.19922 8.83516,-3.79609c2.01563,0.26875 3.7625,1.27656 4.46797,3.25859c0.63828,1.78047 0.33594,3.89688 0.20156,5.84531z" fill="#000000"></path>
            <g fill="#d6e5e5">
                <path d="M83.27891,68.19531c-3.19141,-0.97422 -6.48359,0.67188 -7.02109,4.09844c-0.57109,3.66172 2.35156,6.18125 5.81172,6.28203c1.27656,0.03359 1.67969,-1.10859 1.41094,-2.04922c0.73906,-0.20156 1.14219,-1.04141 1.14219,-1.74688v-5.03906c0.03359,-0.83984 -0.67187,-1.34375 -1.34375,-1.54531zM81.29688,72.39453c-0.73906,0.40313 -1.10859,1.34375 -0.94062,2.08281c0,0.06719 0,0.16797 0,0.23516c-0.5375,-0.40312 -0.87344,-1.04141 -0.77266,-1.78047c0.10078,-1.14219 0.80625,-1.6125 1.71328,-1.64609z"></path>
            </g>
        </g>
    </g>
</svg>