<svg xmlns="http://www.w3.org/2000/svg" x="0px" y="0px" width="60" height="60" viewBox="0 0 172 172" style=" fill:#000000;">
    <g fill="none" fill-rule="nonzero" stroke="none" stroke-width="1" stroke-linecap="butt" stroke-linejoin="miter" stroke-miterlimit="10" stroke-dasharray="" stroke-dashoffset="0" font-family="none" font-weight="none" font-size="none" text-anchor="none" style="mix-blend-mode: normal">
        <path d="M0,172v-172h172v172z" fill="none"></path>
        <g>
            <path d="M42.86383,150.20258c1.18967,0.88508 2.4295,1.6985 3.73742,2.408c3.5045,1.89558 7.38883,2.967 11.27317,3.8485c24.69633,5.6115 53.95067,5.74408 74.0675,-11.85725c22.39942,-19.60083 34.56125,-54.07967 26.13325,-83.04017c-0.89942,-3.09242 -2.01383,-6.12033 -3.19275,-9.11958c-1.65192,-4.20683 -3.43642,-8.37783 -5.68317,-12.30158c-16.985,-29.65208 -60.59058,-39.345 -89.78042,-24.83967c-3.73383,1.85617 -7.30283,4.02767 -10.86108,6.19917c-8.09117,4.93067 -15.06433,11.35558 -21.41758,18.38608c-17.98475,19.90183 -23.24867,48.58283 -15.06433,72.99608c4.35733,13.00033 14.91742,22.96558 24.94717,32.3145c1.87767,1.74867 3.78758,3.47942 5.84083,5.00592z" fill="#4b7bb2"></path>
            <path d="M86.18275,161.65492c-10.20175,0 -20.11325,-1.49783 -28.7025,-3.45075c-3.86283,-0.87792 -7.95858,-1.978 -11.73183,-4.0205c-1.32583,-0.72025 -2.61583,-1.55517 -3.95242,-2.54417c-2.00308,-1.49067 -3.84133,-3.12825 -5.99133,-5.13492c-9.77892,-9.10525 -20.855,-19.42883 -25.42733,-33.05625c-8.57492,-25.5635 -2.5155,-54.911 15.42983,-74.76625c7.34583,-8.13058 14.48025,-14.25092 21.81533,-18.71933c3.55825,-2.16792 7.20608,-4.38958 10.99367,-6.27442c28.48033,-14.147 73.92417,-6.22067 92.13467,25.55633c2.44025,4.257 4.29642,8.729 5.79425,12.53808c0.989,2.5155 2.25033,5.848 3.2465,9.27367c8.27392,28.42658 -2.94192,64.12733 -26.67075,84.88558c-13.58442,11.89308 -30.63033,15.71292 -46.93808,15.71292zM89.47583,10.48125c-10.48125,0 -20.67942,2.16075 -29.2615,6.42492c-3.655,1.81317 -7.23475,3.99183 -10.69267,6.09883c-7.06633,4.30717 -13.94275,10.21608 -21.05208,18.0815c-17.0925,18.91283 -22.85808,46.87 -14.69525,71.22592c4.28208,12.76742 15.007,22.76133 24.47417,31.57633c2.06042,1.92425 3.81625,3.49017 5.68675,4.87692h0.00358c1.19325,0.88867 2.3435,1.634 3.51883,2.27183c3.38983,1.83825 7.20608,2.85592 10.81808,3.6765c21.51075,4.88767 51.53908,6.86208 72.48725,-11.4595c22.73267,-19.89108 33.49342,-54.03667 25.58858,-81.19117c-0.95675,-3.2895 -2.17867,-6.51808 -3.139,-8.9655c-1.44767,-3.68725 -3.24292,-8.00517 -5.5685,-12.06508c-11.77483,-20.55042 -35.61833,-30.5515 -58.16825,-30.5515z" fill="#010101"></path>
            <path d="M121.67208,60.02442c-0.13258,-0.11108 -0.25083,-0.25083 -0.35833,-0.42283c-0.40133,-0.65575 -0.49092,-1.44767 -0.72383,-2.17867c-0.774,-2.44383 -3.15333,-4.1065 -5.64017,-4.73358c-2.48683,-0.62708 -5.09908,-0.39775 -7.654,-0.16125c-2.03533,0.18633 -4.09933,0.37983 -5.99492,1.14308c-1.9995,0.80267 -3.70517,2.193 -5.22092,3.72308c-3.9345,3.97392 -6.80117,9.13392 -7.46767,14.68808c-0.09317,0.78475 -0.24725,1.72358 -0.97108,2.0425c-0.31533,0.13975 -0.67367,0.12183 -1.01408,0.09317c-8.99058,-0.6665 -17.35767,-4.64042 -25.48467,-8.54983c-2.51908,-1.21117 -5.07042,-2.44742 -7.3315,-4.11367c-1.02125,-0.75608 -4.75867,-5.65808 -5.31767,-3.38267c-1.56233,6.36758 -0.61633,13.31208 2.59075,19.03108c0.76325,1.36167 1.70925,2.71258 3.09958,3.42208c-2.33992,-0.37267 -4.68342,-0.74533 -7.02333,-1.118c-0.22217,1.45483 -0.44075,2.98133 0.05017,4.36808c0.30817,0.86358 0.86717,1.6125 1.42258,2.3435c1.59458,2.107 3.18558,4.21042 4.78017,6.31742c1.12517,1.48708 2.26825,2.99208 3.76967,4.09933c1.49783,1.10725 3.42925,1.77375 5.246,1.35092c-2.33633,0.67725 -4.816,0.86 -7.22758,0.5375c0.67725,3.57975 2.82725,6.85492 5.84083,8.901c3.01358,2.04608 6.85133,2.84158 10.4275,2.15717c-1.37958,2.10342 -3.71233,3.36117 -5.9985,4.41108c-3.38983,1.55875 -6.89792,2.85592 -10.48125,3.88433c-1.85617,0.53033 -3.73025,0.989 -5.62225,1.37242c-0.54467,0.11108 -2.69108,0.16483 -3.02075,0.54467c-0.32967,0.38342 -0.50525,1.31508 0.35833,1.57667c0.27592,0.086 0.55183,0.20425 0.82775,0.29383c11.12267,3.63708 23.79333,7.138 35.52158,4.67625c6.39983,-1.34375 12.28367,-4.45767 17.85217,-7.88333c2.78783,-1.71283 5.53983,-3.53317 7.87617,-5.82292c3.53675,-3.47225 5.98058,-7.88692 8.213,-12.31233c2.39725,-4.74792 4.6225,-9.6105 6.235,-14.69167c0.8385,-2.64092 1.51217,-5.33917 1.94217,-8.07683c0.172,-1.10008 -0.03942,-2.55133 0.15408,-3.526c0.31533,-1.58025 2.05683,-1.419 3.139,-2.59075c2.37933,-2.56925 4.32867,-5.53267 5.74767,-8.73617c-2.81292,0.88508 -5.10625,3.225 -8.03383,3.56183c2.36858,-2.71258 4.03125,-6.03792 4.78375,-9.56392c-0.35475,1.66625 -4.41825,3.03867 -5.79783,3.33608c-1.10008,0.24008 -2.57642,0.77758 -3.49375,-0.01075z" fill="#d6e5e5"></path>
            <path d="M74.79492,128.95342c-9.20558,0 -18.72292,-2.61225 -27.821,-5.58283l-0.79192,-0.28308c-0.88867,-0.26875 -1.54442,-0.91375 -1.79167,-1.76658c-0.26517,-0.903 -0.03225,-1.96008 0.59125,-2.69108c0.67367,-0.78475 1.7415,-0.92092 3.42567,-1.075c0.258,-0.02508 0.48375,-0.043 0.61633,-0.0645c1.83108,-0.37267 3.65858,-0.82058 5.46817,-1.33658c3.49733,-0.99975 6.93733,-2.27542 10.22683,-3.79117c0.62708,-0.28667 1.25417,-0.59125 1.85258,-0.92092c-2.32558,-0.344 -4.57592,-1.204 -6.53958,-2.54058c-3.4185,-2.322 -5.82292,-5.98417 -6.59333,-10.05125c-0.1075,-0.56258 0.0645,-1.14667 0.45867,-1.56592c0.215,-0.22575 0.47658,-0.38342 0.75967,-0.47658c-1.032,-1.02483 -1.88842,-2.16433 -2.67675,-3.2035l-4.773,-6.31742c-0.56617,-0.74533 -1.27208,-1.67342 -1.68417,-2.82367c-0.65575,-1.85258 -0.3655,-3.73025 -0.13258,-5.24242c0.07525,-0.46942 0.32967,-0.89225 0.71308,-1.17533c0.38342,-0.2795 0.86358,-0.39417 1.33658,-0.3225l2.07475,0.33325c-3.42208,-6.11317 -4.429,-13.51992 -2.76275,-20.32825c0.33683,-1.376 1.31867,-1.77375 1.72717,-1.88125c1.8705,-0.50167 3.59767,1.34733 5.43592,3.28592c0.40492,0.42642 0.74533,0.80267 0.96392,0.97108c2.16433,1.59817 4.7515,2.838 7.03767,3.9345c7.89408,3.80192 16.0605,7.72925 24.8325,8.37783c0.01433,-0.08242 0.04658,-0.29383 0.07883,-0.559c0.67367,-5.633 3.50808,-11.223 7.97292,-15.73442c2.01025,-2.02458 3.85925,-3.33967 5.8265,-4.12442c2.16433,-0.86717 4.46842,-1.07858 6.50017,-1.26492c2.54775,-0.22933 5.43592,-0.50525 8.256,0.20783c3.37192,0.85642 6.02358,3.12825 6.91225,5.93042c0.08242,0.26517 0.1505,0.53392 0.22217,0.80625c0.09317,0.38342 0.18633,0.74892 0.31175,0.96392c0.2795,0.02508 0.99975,-0.129 1.3975,-0.22575l0.55183,-0.129c1.74508,-0.37625 4.12083,-1.47633 4.46842,-2.06758c0.21142,-0.97108 1.16458,-1.54442 2.107,-1.32225c0.97108,0.20783 1.5695,1.21117 1.36167,2.17867c-0.37983,1.77375 -0.97108,3.50092 -1.74508,5.13133c0.84567,-0.46942 1.73075,-0.90658 2.709,-1.21475c0.6665,-0.20783 1.40467,-0.01075 1.8705,0.51958c0.46942,0.52317 0.58767,1.27208 0.301,1.91708c-1.505,3.397 -3.54392,6.50375 -6.06658,9.22708c-0.67725,0.731 -1.47633,1.10725 -2.05683,1.37958c-0.22933,0.10392 -0.57692,0.26875 -0.65933,0.35475c-0.04658,0.301 -0.03942,0.84567 -0.03225,1.376c0.00717,0.71308 0.00358,1.4405 -0.09317,2.07117c-0.41925,2.67317 -1.0965,5.47892 -2.00667,8.33483c-1.80242,5.69392 -4.33583,10.98292 -6.3425,14.96042c-2.1285,4.20683 -4.71567,9.01208 -8.56058,12.77817c-2.46533,2.42592 -5.3965,4.35017 -8.1915,6.07017c-5.17075,3.18558 -11.40575,6.63992 -18.4255,8.11625c-2.82367,0.59483 -5.70467,0.85642 -8.6215,0.85642zM50.70775,120.80133c10.25192,3.23933 21.48567,5.99133 31.97767,3.79117c6.48225,-1.36525 12.37325,-4.63683 17.28242,-7.66117c3.02433,-1.86333 5.46458,-3.51883 7.55367,-5.57567c3.45792,-3.38983 5.87667,-7.8905 7.87258,-11.84292c1.94217,-3.85208 4.39675,-8.97625 6.12392,-14.4265c0.85283,-2.68392 1.48708,-5.3105 1.87767,-7.81167c0.07525,-0.44792 0.05733,-0.97108 0.05375,-1.47275c-0.00717,-0.7095 -0.01792,-1.44408 0.11825,-2.12133c0.3655,-1.83108 1.7845,-2.494 2.63017,-2.89533c0.40133,-0.18633 0.74892,-0.34758 0.94958,-0.56617c0.94958,-1.02125 1.82033,-2.10342 2.61225,-3.23933c-1.032,0.51242 -2.13567,0.92092 -3.3755,1.06783c-0.77758,0.07167 -1.44767,-0.29383 -1.79167,-0.94958c-0.34758,-0.65575 -0.25083,-1.45125 0.23292,-2.01383c1.02842,-1.17533 1.90992,-2.4725 2.623,-3.85925c-1.075,0.37625 -1.892,0.55542 -1.9135,0.56258l-0.45867,0.1075c-1.23267,0.29742 -3.09242,0.76325 -4.5795,-0.51958c0,0 -0.00358,0 -0.00358,-0.00358c-0.27233,-0.23292 -0.51242,-0.51958 -0.7095,-0.84208c-0.42283,-0.67725 -0.602,-1.40825 -0.74533,-1.98875c-0.05017,-0.20067 -0.09675,-0.39417 -0.15767,-0.58767c-0.61992,-1.94575 -2.666,-3.10317 -4.37525,-3.53675c-2.21092,-0.559 -4.67267,-0.33683 -7.04842,-0.11108c-1.87767,0.172 -3.81625,0.34758 -5.49683,1.01767c-1.49783,0.602 -2.96342,1.65908 -4.61175,3.32175c-3.90583,3.94883 -6.37833,8.7935 -6.96242,13.64175c-0.09675,0.817 -0.32608,2.71975 -2.02458,3.46867c-0.74892,0.32967 -1.4835,0.2795 -1.88125,0.2365c-9.43492,-0.69517 -18.29292,-4.95933 -26.11175,-8.72183c-2.42233,-1.161 -5.17075,-2.47967 -7.61817,-4.28208c-0.30817,-0.22575 -0.82417,-0.7525 -1.42617,-1.38675c-0.3225,-0.34042 -0.88508,-0.93525 -1.41542,-1.43333c-0.95675,5.48608 0.01792,11.29108 2.74483,16.15367c0.54825,0.97825 1.3115,2.16792 2.35067,2.70183c0.78475,0.39775 1.161,1.3115 0.88867,2.15c-0.27233,0.8385 -1.09292,1.34017 -1.98517,1.21833l-5.18508,-0.82417c-0.03225,0.61275 0.00358,1.204 0.18275,1.70925c0.22217,0.6235 0.69875,1.25417 1.15742,1.85975l4.78017,6.321c1.032,1.36525 2.09625,2.7735 3.40417,3.741c1.24342,0.91017 2.63733,1.29717 3.78042,1.04633c0.93167,-0.21858 1.892,0.35833 2.13925,1.29358c0.24008,0.94242 -0.30458,1.90275 -1.23983,2.1715c-1.70925,0.4945 -3.5045,0.74892 -5.29258,0.75967c0.89583,2.20375 2.43667,4.13158 4.41467,5.47892c2.63733,1.79167 5.94475,2.47608 9.08017,1.87408c0.7095,-0.12542 1.42258,0.16483 1.82392,0.76325c0.40133,0.59842 0.40492,1.376 0.01075,1.978c-1.60892,2.46533 -4.1925,3.88792 -6.74383,5.05967c-3.45792,1.591 -7.0735,2.93117 -10.73925,3.9775c-1.57667,0.4515 -3.16767,0.84925 -4.773,1.20042zM122.83308,58.66275l-1.16458,1.36167l1.16458,-1.36167z" fill="#010101"></path>
        </g>
    </g>
</svg>