<svg xmlns="http://www.w3.org/2000/svg" x="0px" y="0px" width="60" height="60" viewBox="0 0 172 172" style=" fill:#000000;">
    <g fill="none" fill-rule="nonzero" stroke="none" stroke-width="1" stroke-linecap="butt" stroke-linejoin="miter" stroke-miterlimit="10" stroke-dasharray="" stroke-dashoffset="0" font-family="none" font-weight="none" font-size="none" text-anchor="none" style="mix-blend-mode: normal">
        <path d="M0,172v-172h172v172z" fill="none"></path>
        <g>
            <path d="M9.92942,97.997c-1.81675,-12.1905 -1.02842,-23.2415 1.47275,-35.31017c0.82775,-3.99542 1.92067,-7.98008 3.85208,-11.58133c6.31025,-11.75333 20.37125,-17.28242 33.68333,-18.77667c13.31208,-1.49067 26.09742,-0.79192 39.47042,-1.56592c19.74417,-1.14308 37.04092,1.03558 55.47717,5.30333c2.84875,0.65933 5.75483,1.34375 8.23092,2.89175c5.70467,3.569 7.783,10.75717 8.90458,17.36842c3.38267,19.92333 2.193,40.34117 -0.12183,60.415c-0.60558,5.23883 -1.419,10.77867 -4.81958,14.82425c-3.03867,3.612 -7.68983,5.45383 -12.26217,6.69008c-12.05075,3.25725 -24.71783,3.23933 -37.20933,3.19992c-15.14317,-0.05017 -30.28992,-0.09675 -45.43308,-0.14692c-14.74183,-0.04658 -30.79158,-0.54467 -42.12925,-9.9115c-2.44025,-2.01383 -4.61533,-4.45408 -5.78708,-7.38525c-0.85283,-2.1285 -1.14308,-4.429 -1.42975,-6.70083c-0.9245,-7.36017 -0.80625,-11.9755 -1.89917,-19.31417z" fill="#ef4823"></path>
            <path d="M164.8835,79.55358c-0.15408,-8.35275 -0.81342,-16.77 -2.365,-24.99017c-1.14667,-6.07375 -3.27517,-12.5775 -8.43875,-16.41883c-2.967,-2.20733 -6.58258,-3.08525 -10.1265,-3.89867c-4.00258,-0.92092 -8.02308,-1.75942 -12.06508,-2.48325c-7.8475,-1.40825 -15.77742,-2.40083 -23.73958,-2.83442c-8.4925,-0.46225 -16.89542,0.01792 -25.37717,0.29742c-8.54625,0.2795 -17.10325,0.15767 -25.64233,0.63783c-13.39092,0.75608 -27.73858,3.24292 -37.77908,12.93942c-5.23883,5.05967 -7.9765,11.58492 -9.50658,18.60825c-1.76658,8.09117 -2.8165,16.40808 -2.6875,24.69633c0.0645,4.14592 0.45508,8.26317 1.04633,12.36608c1.10725,7.64325 0.88867,15.51942 2.47967,23.091c1.46917,6.99108 7.12008,11.96117 13.19383,15.2005c12.814,6.837 28.11125,6.30308 42.2045,6.34967c17.61925,0.05733 35.29583,0.50883 52.9115,0.04658c8.49608,-0.22217 17.07817,-0.94242 25.30908,-3.17842c6.73667,-1.83108 12.98958,-5.06325 15.867,-11.77125c1.36883,-3.18917 1.92425,-6.61483 2.35425,-10.03692c0.53033,-4.20325 0.95317,-8.428 1.32225,-12.64917c0.75967,-8.63225 1.20042,-17.30392 1.03917,-25.972zM159.10717,116.74142c-0.84208,7.22758 -2.49042,13.98575 -9.48508,17.51533c-6.64708,3.354 -14.79917,4.30717 -22.11992,4.89125c-16.07125,1.28283 -32.4005,0.48017 -48.50758,0.42642c-7.826,-0.02508 -15.65917,0.043 -23.48517,-0.11467c-6.579,-0.13258 -13.20458,-0.51958 -19.62592,-2.05325c-6.407,-1.53008 -12.75667,-4.27492 -17.46517,-9.00133c-5.33917,-5.36067 -5.12775,-13.31925 -5.65808,-20.39992c-0.26158,-3.50808 -0.602,-7.00183 -1.10367,-10.48483c-1.14308,-7.90842 -1.19325,-15.92075 -0.26517,-23.85783c0.87433,-7.49633 2.02458,-15.88133 5.88383,-22.49617c6.26367,-10.74283 19.26758,-15.50867 31.02092,-16.97067c7.87258,-0.98183 15.8455,-1.06783 23.76825,-1.17892c7.8905,-0.11108 15.7595,-0.602 23.64642,-0.73817c15.26142,-0.26517 30.39025,1.65192 45.26825,4.95933c3.43642,0.76325 7.21325,1.3545 10.23758,3.26442c2.70183,1.70567 4.53292,4.46483 5.72975,7.3745c2.666,6.48225 3.268,13.975 3.83058,20.88367c1.29717,15.98883 0.18633,32.08517 -1.66983,47.98083z" fill="#010101"></path>
            <path d="M70.23333,62.83017c-2.15,16.00317 0.645,31.60142 0.35833,46.33967c13.68475,-7.66475 28.44092,-15.3295 42.12925,-22.99425c-5.61867,-3.46508 -11.954,-7.00542 -17.9095,-9.85417c-7.92633,-3.78758 -17.9095,-8.987 -24.57808,-13.49125z" fill="#d6e5e5"></path>
            <path d="M113.62392,84.62758c-13.78867,-8.46742 -29.025,-14.33333 -42.48758,-23.34542c-0.55183,-0.36908 -1.08217,-0.35117 -1.5265,-0.14692c-0.52675,0.129 -0.97467,0.4945 -1.10367,1.21475c-1.54442,8.57133 -2.01742,17.16775 -1.27925,25.84658c0.59483,6.99467 1.68058,13.92842 1.57308,20.96608c-0.0215,1.38317 1.53008,2.20017 2.69467,1.548c13.96425,-7.80808 28.165,-15.18258 42.12925,-22.99425c1.20042,-0.6665 1.12158,-2.39725 0,-3.08883zM70.86042,88.7735c-0.688,-7.70417 -0.42642,-15.34025 0.73817,-22.962c12.00058,7.6325 25.20517,13.14008 37.48525,20.30675c-12.20842,6.76892 -24.553,13.29417 -36.76142,20.06308c-0.16483,-5.82292 -0.946,-11.59567 -1.462,-17.40783z" fill="#010101"></path>
        </g>
    </g>
</svg>